<?xml version="1.0" encoding="UTF-8"?>
<svg width="14px" height="14px" viewBox="0 0 14 14" version="1.1" xmlns="http://www.w3.org/2000/svg" xmlns:xlink="http://www.w3.org/1999/xlink">
    <!-- Generator: Sketch 44.1 (41455) - http://www.bohemiancoding.com/sketch -->
    <title>search</title>
    <desc>Created with Sketch.</desc>
    <defs></defs>
    <g id="present" stroke="none" stroke-width="1" fill="none" fill-rule="evenodd">
        <g id="1-Web---Home" transform="translate(-951.000000, -1312.000000)" fill-rule="nonzero" fill="#FFFFFF">
            <g id="API" transform="translate(205.000000, 655.000000)">
                <g id="2" transform="translate(2.000000, 426.000000)">
                    <g id="Group-13" transform="translate(448.000000, 0.000000)">
                        <g id="BTN" transform="translate(0.000000, 218.000000)">
                            <g id="Group-14" transform="translate(296.000000, 13.000000)">
                                <path d="M10.0317379,8.61752431 L10.0317379,8.61752431 L13.4658324,12.0516189 C13.8563567,12.4421432 13.8563567,13.0753081 13.4658324,13.4658324 C13.0753081,13.8563567 12.4421432,13.8563567 12.0516189,13.4658324 L8.61752431,10.0317379 C7.73148308,10.642436 6.65749832,11 5.5,11 C2.46243388,11 0,8.53756612 0,5.5 C0,2.46243388 2.46243388,0 5.5,0 C8.53756612,0 11,2.46243388 11,5.5 C11,6.65749832 10.642436,7.73148308 10.0317379,8.61752431 Z M5.5,9 C7.43299662,9 9,7.43299662 9,5.5 C9,3.56700338 7.43299662,2 5.5,2 C3.56700338,2 2,3.56700338 2,5.5 C2,7.43299662 3.56700338,9 5.5,9 Z" id="search"></path>
                            </g>
                        </g>
                    </g>
                </g>
            </g>
        </g>
    </g>
</svg>