<?xml version="1.0" encoding="UTF-8"?>
<svg width="24px" height="25px" viewBox="0 0 24 25" version="1.1" xmlns="http://www.w3.org/2000/svg" xmlns:xlink="http://www.w3.org/1999/xlink">
    <!-- Generator: Sketch 44.1 (41455) - http://www.bohemiancoding.com/sketch -->
    <title>instagram</title>
    <desc>Created with Sketch.</desc>
    <defs></defs>
    <g id="present" stroke="none" stroke-width="1" fill="none" fill-rule="evenodd" opacity="0.5">
        <g id="1-Web---Home" transform="translate(-752.000000, -2754.000000)" fill-rule="nonzero" fill="#FFFFFF">
            <g id="Footer" transform="translate(0.000000, 2430.000000)">
                <g id="rrss" transform="translate(504.000000, 321.000000)">
                    <path d="M264.935849,5.17358491 L254.973585,5.17358491 C253.524528,5.17358491 252.256604,5.62641509 251.441509,6.44150943 C250.626415,7.25660377 250.173585,8.5245283 250.173585,9.97358491 L250.173585,19.9358491 C250.173585,21.3849057 250.626415,22.6528302 251.532075,23.5584906 C252.437736,24.3735849 253.615094,24.8264151 255.064151,24.8264151 L264.935849,24.8264151 C266.384906,24.8264151 267.65283,24.3735849 268.467925,23.5584906 C269.373585,22.7433962 269.826415,21.4754717 269.826415,20.0264151 L269.826415,10.0641509 C269.826415,8.61509434 269.373585,7.43773585 268.558491,6.53207547 C267.65283,5.62641509 266.475472,5.17358491 264.935849,5.17358491 Z M259.954717,21.1132075 C256.513208,21.1132075 253.796226,18.3056604 253.796226,14.954717 C253.796226,11.5132075 256.603774,8.79622642 259.954717,8.79622642 C263.30566,8.79622642 266.203774,11.5132075 266.203774,14.954717 C266.203774,18.3962264 263.396226,21.1132075 259.954717,21.1132075 Z M266.384906,9.97358491 C265.569811,9.97358491 264.935849,9.33962264 264.935849,8.5245283 C264.935849,7.70943396 265.569811,7.0754717 266.384906,7.0754717 C267.2,7.0754717 267.833962,7.70943396 267.833962,8.5245283 C267.833962,9.33962264 267.2,9.97358491 266.384906,9.97358491 Z M272,20.0264151 C272,22.109434 271.275472,23.9207547 270.007547,25.1886792 C268.739623,26.4566038 266.928302,27.090566 264.935849,27.090566 L255.064151,27.090566 C253.071698,27.090566 251.260377,26.4566038 249.992453,25.1886792 C248.633962,23.9207547 248,22.109434 248,20.0264151 L248,10.0641509 C248,5.89811321 250.807547,3 255.064151,3 L265.026415,3 C267.109434,3 268.830189,3.7245283 270.098113,4.99245283 C271.366038,6.26037736 272,7.98113208 272,10.0641509 L272,20.0264151 Z M259.954717,18.9396226 C262.15552,18.9396226 263.939623,17.1555196 263.939623,14.954717 C263.939623,12.7539144 262.15552,10.9698113 259.954717,10.9698113 C257.753914,10.9698113 255.969811,12.7539144 255.969811,14.954717 C255.969811,17.1555196 257.753914,18.9396226 259.954717,18.9396226 Z" id="instagram"></path>
                </g>
            </g>
        </g>
    </g>
</svg>