<?xml version="1.0" encoding="UTF-8"?>
<svg width="24px" height="24px" viewBox="0 0 24 24" version="1.1" xmlns="http://www.w3.org/2000/svg" xmlns:xlink="http://www.w3.org/1999/xlink">
    <!-- Generator: Sketch 44.1 (41455) - http://www.bohemiancoding.com/sketch -->
    <title>linkedin</title>
    <desc>Created with Sketch.</desc>
    <defs></defs>
    <g id="present" stroke="none" stroke-width="1" fill="none" fill-rule="evenodd" opacity="0.5">
        <g id="1-Web---Home" transform="translate(-568.000000, -2751.000000)" fill="#FFFFFF">
            <g id="Footer" transform="translate(0.000000, 2430.000000)">
                <g id="rrss" transform="translate(504.000000, 321.000000)">
                    <path d="M79.5648906,8.2929375 C80.7135156,8.2929375 81.6912344,8.704125 82.4995938,9.49795313 C83.180125,10.1926406 83.5061875,11.199 83.5061875,12.5314219 L83.5061875,20.1869062 L80.6281563,20.1869062 L80.6281563,15.1116094 C80.6281563,13.7369063 80.5573281,12.8152031 80.4440312,12.3611719 C80.3166719,11.9078906 80.1038125,11.5534688 79.7919062,11.3266875 C79.4800469,11.08575 79.0973125,10.9722187 78.6437969,10.9722187 C78.0624062,10.9722187 77.5518438,11.1566719 77.1266406,11.5534219 C76.7015313,11.9504531 76.4178438,12.4893281 76.2480156,13.1840156 C76.1626094,13.5519375 76.1200938,14.33175 76.1200938,15.5372344 L76.1200938,20.1868594 L73.2142188,20.1868594 L73.2142188,8.57648438 L76.1200937,8.57648438 L76.1200937,9.78145313 C76.7864219,9.22860937 77.3819687,8.84578125 77.9208438,8.61904688 C78.45925,8.40646875 78.9981719,8.2929375 79.5648906,8.2929375 L79.5648906,8.2929375 Z M65.2047344,24 L86.8089531,24 C87.4610781,24 88,23.461875 88,22.8092344 L88,1.20496875 C88,0.538640625 87.4610781,0 86.8089531,0 L65.2047344,0 C64.5384062,0 64,0.538640625 64,1.20496875 L64,22.8092344 C64,23.4618281 64.5384062,24 65.2047344,24 L65.2047344,24 Z M70.3507187,3.81328125 C70.8608594,3.81328125 71.3006406,3.9975 71.6692187,4.366125 C72.03775,4.73475 72.207625,5.18826563 72.207625,5.7129375 C72.207625,6.22321875 72.03775,6.6628125 71.6692187,7.03120313 C71.3147969,7.39982813 70.8750156,7.570125 70.364875,7.570125 C69.8547344,7.570125 69.4149531,7.38567187 69.0464219,7.01704688 C68.6778906,6.64865625 68.4938125,6.19485938 68.4938125,5.65621875 C68.4938125,5.1459375 68.6778437,4.72059375 69.0322656,4.35192187 C69.4007969,3.9975 69.8401563,3.81328125 70.3507187,3.81328125 L70.3507187,3.81328125 Z M68.8907031,8.57648437 L71.796625,8.57648437 L71.796625,20.1869062 L68.8907031,20.1869062 L68.8907031,8.57648437 L68.8907031,8.57648437 Z" id="linkedin"></path>
                </g>
            </g>
        </g>
    </g>
</svg>