<?xml version="1.0" encoding="UTF-8"?>
<svg width="136px" height="49px" viewBox="0 0 136 49" version="1.1" xmlns="http://www.w3.org/2000/svg" xmlns:xlink="http://www.w3.org/1999/xlink">
    <!-- Generator: Sketch 44.1 (41455) - http://www.bohemiancoding.com/sketch -->
    <title>Logo</title>
    <desc>Created with Sketch.</desc>
    <defs></defs>
    <g id="Page-1" stroke="none" stroke-width="1" fill="none" fill-rule="evenodd">
        <g id="Logo" fill="#FFFFFF">
            <g id="Group-301">
                <path d="M20.7208333,37.8780449 C20.7208333,41.9450449 17.4056159,45.241736 13.3157609,45.241736 C9.2259058,45.241736 5.91068841,41.9450449 5.91068841,37.8780449 C5.91068841,33.8114051 9.2259058,30.514714 13.3157609,30.514714 C17.4056159,30.514714 20.7208333,33.8114051 20.7208333,37.8780449" id="Fill-231" opacity="0.300000012"></path>
                <path d="M49.8206159,26.9991801 C49.8206159,29.2167904 48.0126449,31.0150184 45.7822101,31.0150184 C43.5517754,31.0150184 41.7438043,29.2167904 41.7438043,26.9991801 C41.7438043,24.7812096 43.5517754,22.9833419 45.7822101,22.9833419 C48.0126449,22.9833419 49.8206159,24.7812096 49.8206159,26.9991801" id="Fill-233" opacity="0.300000012"></path>
                <path d="M29.1008696,14.969464 C29.1008696,16.0582728 28.2135507,16.9409934 27.1182609,16.9409934 C26.0236957,16.9409934 25.1360145,16.0582728 25.1360145,14.969464 C25.1360145,13.8810154 26.0236957,12.9979346 27.1182609,12.9979346 C28.2135507,12.9979346 29.1008696,13.8810154 29.1008696,14.969464" id="Fill-235" opacity="0.300000012"></path>
                <path d="M4.83434783,18.2078596 C4.83434783,19.2963081 3.94666667,20.179389 2.85173913,20.179389 C1.75681159,20.179389 0.869492754,19.2963081 0.869492754,18.2078596 C0.869492754,17.1190507 1.75681159,16.2363301 2.85173913,16.2363301 C3.94666667,16.2363301 4.83434783,17.1190507 4.83434783,18.2078596" id="Fill-237" opacity="0.300000012"></path>
                <path d="M25.8081522,1.99992059 C25.8081522,3.08836912 24.9208333,3.97145 23.8255435,3.97145 C22.7309783,3.97145 21.8432971,3.08836912 21.8432971,1.99992059 C21.8432971,0.911111765 22.7309783,0.0283911765 23.8255435,0.0283911765 C24.9208333,0.0283911765 25.8081522,0.911111765 25.8081522,1.99992059" id="Fill-239" opacity="0.300000012"></path>
                <path d="M47.8738406,33.6375272 C47.8738406,34.726336 46.9865217,35.6090566 45.8912319,35.6090566 C44.7966667,35.6090566 43.9089855,34.726336 43.9089855,33.6375272 C43.9089855,32.5490787 44.7966667,31.6659978 45.8912319,31.6659978 C46.9865217,31.6659978 47.8738406,32.5490787 47.8738406,33.6375272" id="Fill-241" opacity="0.300000012"></path>
                <path d="M17.7861594,22.5493316 C17.7861594,23.6377801 16.8988406,24.520861 15.8035507,24.520861 C14.7089855,24.520861 13.8213043,23.6377801 13.8213043,22.5493316 C13.8213043,21.4605228 14.7089855,20.5774419 15.8035507,20.5774419 C16.8988406,20.5774419 17.7861594,21.4605228 17.7861594,22.5493316" id="Fill-243" opacity="0.300000012"></path>
                <path d="M18.2089855,10.1026471 C20.0151449,13.7513456 18.5053623,18.1656691 14.8361594,19.9620956 C11.1669565,21.7588824 6.72855072,20.2571765 4.92202899,16.6084779 C3.11586957,12.9597794 4.62565217,8.54545588 8.29485507,6.74866912 C11.9636957,4.95224265 16.4024638,6.45394853 18.2089855,10.1026471" id="Fill-245" opacity="0.600000024"></path>
                <path d="M38.5243116,43.1723147 C38.5243116,44.6909544 37.2866304,45.9220794 35.7594565,45.9220794 C34.2322826,45.9220794 32.9942391,44.6909544 32.9942391,43.1723147 C32.9942391,41.653675 34.2322826,40.4229103 35.7594565,40.4229103 C37.2866304,40.4229103 38.5243116,41.653675 38.5243116,43.1723147" id="Fill-247" opacity="0.600000024"></path>
                <path d="M28.5372101,46.2112515 C28.5372101,47.7298912 27.299529,48.9610162 25.7723551,48.9610162 C24.2451812,48.9610162 23.0071377,47.7298912 23.0071377,46.2112515 C23.0071377,44.6929721 24.2451812,43.4618471 25.7723551,43.4618471 C27.299529,43.4618471 28.5372101,44.6929721 28.5372101,46.2112515" id="Fill-249" opacity="0.600000024"></path>
                <path d="M43.0356159,22.0440912 C43.0356159,23.5627309 41.7979348,24.7938559 40.2707609,24.7938559 C38.743587,24.7938559 37.5055435,23.5627309 37.5055435,22.0440912 C37.5055435,20.5254515 38.743587,19.2946868 40.2707609,19.2946868 C41.7979348,19.2946868 43.0356159,20.5254515 43.0356159,22.0440912" id="Fill-251" opacity="0.600000024"></path>
                <path d="M39.3607609,8.53129632 C39.3607609,9.61974485 38.4730797,10.5028257 37.3781522,10.5028257 C36.2832246,10.5028257 35.3959058,9.61974485 35.3959058,8.53129632 C35.3959058,7.4424875 36.2832246,6.55976691 37.3781522,6.55976691 C38.4730797,6.55976691 39.3607609,7.4424875 39.3607609,8.53129632" id="Fill-253" opacity="0.600000024"></path>
                <path d="M16.3308696,28.122289 C16.3308696,29.2107375 15.4435507,30.0938184 14.3482609,30.0938184 C13.2536957,30.0938184 12.3660145,29.2107375 12.3660145,28.122289 C12.3660145,27.0334801 13.2536957,26.1503993 14.3482609,26.1503993 C15.4435507,26.1503993 16.3308696,27.0334801 16.3308696,28.122289" id="Fill-255" opacity="0.600000024"></path>
                <path d="M37.5965942,13.9402838 C37.5965942,16.1578941 35.7886232,17.9561221 33.5581884,17.9561221 C31.3277536,17.9561221 29.5197826,16.1578941 29.5197826,13.9402838 C29.5197826,11.7223132 31.3277536,9.92444559 33.5581884,9.92444559 C35.7886232,9.92444559 37.5965942,11.7223132 37.5965942,13.9402838" id="Fill-257" opacity="0.600000024"></path>
                <path d="M36.3408696,38.2326824 C36.3408696,39.3214912 35.4535507,40.2042118 34.3582609,40.2042118 C33.2636957,40.2042118 32.3760145,39.3214912 32.3760145,38.2326824 C32.3760145,37.1442338 33.2636957,36.2611529 34.3582609,36.2611529 C35.4535507,36.2611529 36.3408696,37.1442338 36.3408696,38.2326824" id="Fill-259" opacity="0.400000006"></path>
                <path d="M24.2622826,42.2303978 C24.2622826,43.3188463 23.3746014,44.2019272 22.2796739,44.2019272 C21.1847464,44.2019272 20.2974275,43.3188463 20.2974275,42.2303978 C20.2974275,41.141589 21.1847464,40.2585081 22.2796739,40.2585081 C23.3746014,40.2585081 24.2622826,41.141589 24.2622826,42.2303978" id="Fill-261" opacity="0.400000006"></path>
                <path d="M44.1268116,9.6695375 C44.1268116,10.7583463 43.2391304,11.6410669 42.1442029,11.6410669 C41.0492754,11.6410669 40.1615942,10.7583463 40.1615942,9.6695375 C40.1615942,8.58108897 41.0492754,7.69800809 42.1442029,7.69800809 C43.2391304,7.69800809 44.1268116,8.58108897 44.1268116,9.6695375" id="Fill-263" opacity="0.400000006"></path>
                <path d="M4.01557971,24.159414 C4.01557971,25.2478625 3.12789855,26.1309434 2.03297101,26.1309434 C0.938043478,26.1309434 0.0507246377,25.2478625 0.0507246377,24.159414 C0.0507246377,23.0706051 0.938043478,22.1878846 2.03297101,22.1878846 C3.12789855,22.1878846 4.01557971,23.0706051 4.01557971,24.159414" id="Fill-265" opacity="0.400000006"></path>
                <path d="M21.8247464,8.60202206 C21.8247464,9.69083088 20.9370652,10.5735515 19.8421377,10.5735515 C18.7472101,10.5735515 17.8598913,9.69083088 17.8598913,8.60202206 C17.8598913,7.51357353 18.7472101,6.63049265 19.8421377,6.63049265 C20.9370652,6.63049265 21.8247464,7.51357353 21.8247464,8.60202206" id="Fill-267" opacity="0.400000006"></path>
                <path d="M21.6432609,3.59166397 C21.6432609,5.11030368 20.4052174,6.34142868 18.8784058,6.34142868 C17.3512319,6.34142868 16.1131884,5.11030368 16.1131884,3.59166397 C16.1131884,2.07302426 17.3512319,0.841899265 18.8784058,0.841899265 C20.4052174,0.841899265 21.6432609,2.07302426 21.6432609,3.59166397" id="Fill-269" opacity="0.400000006"></path>
                <path d="M29.6287681,36.8759588 C29.6287681,39.0935691 27.8207971,40.8917971 25.5903623,40.8917971 C23.3599275,40.8917971 21.5519565,39.0935691 21.5519565,36.8759588 C21.5519565,34.6579882 23.3599275,32.8601206 25.5903623,32.8601206 C27.8207971,32.8601206 29.6287681,34.6579882 29.6287681,36.8759588" id="Fill-271" opacity="0.400000006"></path>
                <path d="M44.982029,38.3231162 C44.982029,40.5407265 43.174058,42.3389544 40.9436232,42.3389544 C38.7131884,42.3389544 36.9052174,40.5407265 36.9052174,38.3231162 C36.9052174,36.1051456 38.7131884,34.3072779 40.9436232,34.3072779 C43.174058,34.3072779 44.982029,36.1051456 44.982029,38.3231162" id="Fill-273" opacity="0.400000006"></path>
                <path d="M9.21862319,29.6039265 C9.21862319,31.8218971 7.41065217,33.6197647 5.18021739,33.6197647 C2.94978261,33.6197647 1.14181159,31.8218971 1.14181159,29.6039265 C1.14181159,27.3863162 2.94978261,25.5880882 5.18021739,25.5880882 C7.41065217,25.5880882 9.21862319,27.3863162 9.21862319,29.6039265" id="Fill-275" opacity="0.200000003"></path>
                <path d="M19.6232609,46.3006044 C19.6232609,47.3894132 18.7355797,48.2721338 17.6406522,48.2721338 C16.5457246,48.2721338 15.6584058,47.3894132 15.6584058,46.3006044 C15.6584058,45.2121559 16.5457246,44.329075 17.6406522,44.329075 C18.7355797,44.329075 19.6232609,45.2121559 19.6232609,46.3006044" id="Fill-277" opacity="0.200000003"></path>
                <path d="M28.0464493,10.248314 C28.0464493,11.7669537 26.8084058,12.9980787 25.2815942,12.9980787 C23.7544203,12.9980787 22.5163768,11.7669537 22.5163768,10.248314 C22.5163768,8.73003456 23.7544203,7.49890956 25.2815942,7.49890956 C26.8084058,7.49890956 28.0464493,8.73003456 28.0464493,10.248314" id="Fill-279" opacity="0.200000003"></path>
                <path d="M24.7721377,15.7477353 C24.7721377,17.266375 23.5340942,18.4971397 22.0069203,18.4971397 C20.4801087,18.4971397 19.2420652,17.266375 19.2420652,15.7477353 C19.2420652,14.2290956 20.4801087,12.9979706 22.0069203,12.9979706 C23.5340942,12.9979706 24.7721377,14.2290956 24.7721377,15.7477353" id="Fill-281" opacity="0.200000003"></path>
                <path d="M49.8386594,20.938925 C49.8386594,22.0277338 48.9509783,22.9104544 47.8560507,22.9104544 C46.7611232,22.9104544 45.8738043,22.0277338 45.8738043,20.938925 C45.8738043,19.8504765 46.7611232,18.9673956 47.8560507,18.9673956 C48.9509783,18.9673956 49.8386594,19.8504765 49.8386594,20.938925" id="Fill-283" opacity="0.200000003"></path>
                <path d="M33.6309058,4.31509853 C33.6309058,6.53306912 31.8229348,8.33093676 29.5925,8.33093676 C27.3620652,8.33093676 25.5540942,6.53306912 25.5540942,4.31509853 C25.5540942,2.09748824 27.3620652,0.299260294 29.5925,0.299260294 C31.8229348,0.299260294 33.6309058,2.09748824 33.6309058,4.31509853" id="Fill-285" opacity="0.200000003"></path>
                <path d="M34.5105072,24.8652301 C34.5105072,28.9318699 31.1952899,32.228561 27.1057971,32.228561 C23.0155797,32.228561 19.7007246,28.9318699 19.7007246,24.8652301 C19.7007246,20.7985904 23.0155797,17.5018993 27.1057971,17.5018993 C31.1952899,17.5018993 34.5105072,20.7985904 34.5105072,24.8652301" id="Fill-287"></path>
                <path d="M33.23,46.2281132 C33.23,47.3169221 32.3426812,48.1996426 31.2473913,48.1996426 C30.1528261,48.1996426 29.2651449,47.3169221 29.2651449,46.2281132 C29.2651449,45.1396647 30.1528261,44.2565838 31.2473913,44.2565838 C32.3426812,44.2565838 33.23,45.1396647 33.23,46.2281132" id="Fill-289"></path>
                <path d="M42.3081522,31.0873294 C42.3081522,32.6059691 41.0701087,33.8367338 39.5429348,33.8367338 C38.0161232,33.8367338 36.7780797,32.6059691 36.7780797,31.0873294 C36.7780797,29.5686897 38.0161232,28.3375647 39.5429348,28.3375647 C41.0701087,28.3375647 42.3081522,29.5686897 42.3081522,31.0873294" id="Fill-291"></path>
                <path d="M36.3956884,32.9686772 C36.3956884,34.4873169 35.1580072,35.7180816 33.6308333,35.7180816 C32.1036594,35.7180816 30.8656159,34.4873169 30.8656159,32.9686772 C30.8656159,31.4500375 32.1036594,30.2189125 33.6308333,30.2189125 C35.1580072,30.2189125 36.3956884,31.4500375 36.3956884,32.9686772" id="Fill-293"></path>
                <path d="M13.7847464,24.5753015 C13.7847464,26.0939412 12.5470652,27.3247059 11.0198913,27.3247059 C9.49271739,27.3247059 8.25467391,26.0939412 8.25467391,24.5753015 C8.25467391,23.0566618 9.49271739,21.8255368 11.0198913,21.8255368 C12.5470652,21.8255368 13.7847464,23.0566618 13.7847464,24.5753015" id="Fill-295"></path>
                <path d="M38.0509058,4.65849485 C38.0509058,5.74730368 37.1632246,6.63038456 36.0682971,6.63038456 C34.9733696,6.63038456 34.0860507,5.74730368 34.0860507,4.65849485 C34.0860507,3.57004632 34.9733696,2.68696544 36.0682971,2.68696544 C37.1632246,2.68696544 38.0509058,3.57004632 38.0509058,4.65849485" id="Fill-297"></path>
                <path d="M47.8926087,15.7477353 C47.8926087,17.9653456 46.0846377,19.7635735 43.8542029,19.7635735 C41.6237681,19.7635735 39.8157971,17.9653456 39.8157971,15.7477353 C39.8157971,13.5297647 41.6237681,11.7318971 43.8542029,11.7318971 C46.0846377,11.7318971 47.8926087,13.5297647 47.8926087,15.7477353" id="Fill-299"></path>
            </g>
            <path d="M58.4296875,23 L58.4296875,22.390625 L60.6796875,22.390625 L60.6796875,6.8046875 L58.4296875,6.8046875 L58.4296875,6.1953125 L65.5078125,6.1953125 C66.398442,6.1953125 67.1874966,6.31249883 67.875,6.546875 C68.5625034,6.78125117 69.1015605,7.09960736 69.4921875,7.50195312 C69.8828145,7.90429889 70.1757803,8.34179451 70.3710938,8.81445312 C70.5664072,9.28711174 70.6640625,9.78515363 70.6640625,10.3085938 C70.6640625,11.3242238 70.3671905,12.1386688 69.7734375,12.7519531 C69.1796845,13.3652374 68.3671927,13.7890613 67.3359375,14.0234375 L67.3359375,14.1640625 C68.531256,14.3515634 69.4433562,14.769528 70.0722656,15.4179688 C70.701175,16.0664095 71.015625,16.8203082 71.015625,17.6796875 L71.015625,20.234375 C71.015625,21.0546916 71.1503893,21.6347639 71.4199219,21.9746094 C71.6894545,22.3144548 72.144528,22.484375 72.7851562,22.484375 C73.230471,22.484375 73.6953101,22.3945321 74.1796875,22.2148438 L74.3203125,22.8007812 C73.5390586,23.058595 72.7226605,23.1875 71.8710938,23.1875 C71.4882793,23.1875 71.1210955,23.1425786 70.7695312,23.0527344 C70.417967,22.9628902 70.0683611,22.8164073 69.7207031,22.6132812 C69.3730451,22.4101552 69.0957042,22.1054708 68.8886719,21.6992188 C68.6816396,21.2929667 68.578125,20.8085966 68.578125,20.2460938 L68.578125,17.5039062 C68.578125,16.6210893 68.3417992,15.8789093 67.8691406,15.2773438 C67.396482,14.6757782 66.6875047,14.375 65.7421875,14.375 L63.1171875,14.375 L63.1171875,22.390625 L65.3671875,22.390625 L65.3671875,23 L58.4296875,23 Z M63.1171875,13.765625 L66.1171875,13.765625 C66.5390646,13.765625 66.8925767,13.6835946 67.1777344,13.5195312 C67.4628921,13.3554679 67.6796868,13.1191422 67.828125,12.8105469 C67.9765632,12.5019516 68.0800778,12.1660174 68.1386719,11.8027344 C68.1972659,11.4394513 68.2265625,11.0117212 68.2265625,10.5195312 C68.2265625,10.0585914 68.1738287,9.61718961 68.0683594,9.1953125 C67.9628901,8.77343539 67.8027354,8.37890809 67.5878906,8.01171875 C67.3730458,7.64452941 67.0703145,7.35156359 66.6796875,7.1328125 C66.2890605,6.91406141 65.8359401,6.8046875 65.3203125,6.8046875 L63.1171875,6.8046875 L63.1171875,13.765625 Z M74.9734375,20.7382812 C74.9734375,19.8007766 75.2292943,19.1015648 75.7410156,18.640625 C76.2527369,18.1796852 76.9773391,17.8906256 77.9148437,17.7734375 C78.5242218,17.6953121 79.0398416,17.5761727 79.4617187,17.4160156 C79.8835958,17.2558586 80.3171853,17.0312514 80.7625,16.7421875 L80.7625,15.5 C80.7625,15.2109361 80.7312503,14.9335951 80.66875,14.6679688 C80.6062497,14.4023424 80.5027351,14.1386732 80.3582031,13.8769531 C80.2136711,13.6152331 79.9968764,13.4062508 79.7078125,13.25 C79.4187485,13.0937492 79.0710958,13.015625 78.6648437,13.015625 C78.1960914,13.015625 77.782033,13.1171865 77.4226562,13.3203125 C77.0632794,13.5234385 76.8835937,13.7851546 76.8835937,14.1054688 C76.8835937,14.2695321 76.9382807,14.4765612 77.0476562,14.7265625 C77.1648443,14.9765638 77.2234375,15.2187488 77.2234375,15.453125 C77.2234375,15.6796886 77.139454,15.8769523 76.9714844,16.0449219 C76.8035148,16.2128915 76.5554704,16.296875 76.2273437,16.296875 C75.8523419,16.296875 75.5730478,16.1972666 75.3894531,15.9980469 C75.2058584,15.7988271 75.1140625,15.5312517 75.1140625,15.1953125 C75.1140625,14.4843714 75.4714808,13.8496122 76.1863281,13.2910156 C76.9011754,12.7324191 77.7624949,12.453125 78.7703125,12.453125 C80.1296943,12.453125 81.1218719,12.8144495 81.746875,13.5371094 C82.3718781,14.2597692 82.684375,15.218744 82.684375,16.4140625 L82.684375,21.1367188 C82.684375,21.6132836 82.795702,21.9609364 83.0183594,22.1796875 C83.2410167,22.3984386 83.5203108,22.5078125 83.85625,22.5078125 C84.0906262,22.5078125 84.3406237,22.480469 84.60625,22.4257812 L84.7,23.0234375 C84.3249981,23.132813 83.9929702,23.1875 83.7039062,23.1875 C82.9539025,23.1875 82.3484398,23.0605481 81.8875,22.8066406 C81.4265602,22.5527331 81.090626,22.0664098 80.8796875,21.3476562 L80.7859375,21.3476562 C80.4031231,21.9257841 79.9773461,22.3769515 79.5085937,22.7011719 C79.0398414,23.0253922 78.4421911,23.1875 77.715625,23.1875 C76.8953084,23.1875 76.2332056,22.9687522 75.7292969,22.53125 C75.2253881,22.0937478 74.9734375,21.4960975 74.9734375,20.7382812 Z M77.0125,20.5507812 C77.0125,21.7460997 77.5671819,22.34375 78.6765625,22.34375 C79.0828145,22.34375 79.4656232,22.1875016 79.825,21.875 C80.1843768,21.5624984 80.4968737,21.1640649 80.7625,20.6796875 L80.7625,17.2929688 C80.3874981,17.5351575 80.033986,17.7167963 79.7019531,17.8378906 C79.3699202,17.958985 78.8835969,18.1015617 78.2429687,18.265625 C77.4226521,18.4765636 77.0125,19.2382747 77.0125,20.5507812 Z M85.5875,17.8203125 C85.5875,16.7031194 85.7808574,15.7343791 86.1675781,14.9140625 C86.5542988,14.0937459 87.095309,13.4687521 87.790625,13.0390625 C88.4234406,12.6484355 89.1304648,12.453125 89.9117187,12.453125 C91.3257883,12.453125 92.4468708,13.156243 93.275,14.5625 L93.4390625,14.5390625 L93.4390625,6.03125 L91.025,6.03125 L91.025,5.46875 L95.3609375,5.46875 L95.3609375,22.4375 L97.025,22.4375 L97.025,23 L93.4390625,23 L93.4390625,21.1015625 L93.275,21.078125 C92.4468708,22.484382 91.3257883,23.1875 89.9117187,23.1875 C89.1304648,23.1875 88.4234406,22.9921895 87.790625,22.6015625 C87.095309,22.1718729 86.5542988,21.5468791 86.1675781,20.7265625 C85.7808574,19.9062459 85.5875,18.9375056 85.5875,17.8203125 Z M87.74375,17.8203125 C87.74375,18.7187545 87.8316397,19.5039029 88.0074219,20.1757812 C88.183204,20.8476596 88.4878884,21.4003885 88.9214844,21.8339844 C89.3550803,22.2675803 89.8999967,22.484375 90.55625,22.484375 C91.3062537,22.484375 91.9742158,22.0488325 92.5601562,21.1777344 C93.1460967,20.3066363 93.4390625,19.1875068 93.4390625,17.8203125 C93.4390625,16.4531182 93.1460967,15.3339887 92.5601562,14.4628906 C91.9742158,13.5917925 91.3062537,13.15625 90.55625,13.15625 C89.8999967,13.15625 89.3550803,13.3730447 88.9214844,13.8066406 C88.4878884,14.2402365 88.183204,14.7929654 88.0074219,15.4648438 C87.8316397,16.1367221 87.74375,16.9218705 87.74375,17.8203125 Z M98.00625,23 L98.00625,22.4375 L99.6703125,22.4375 L99.6703125,13.203125 L98.00625,13.203125 L98.00625,12.640625 L101.592187,12.640625 L101.592187,22.4375 L103.25625,22.4375 L103.25625,23 L98.00625,23 Z M99.2015625,7.0859375 C99.2015625,6.67968547 99.3421861,6.33593891 99.6234375,6.0546875 C99.9046889,5.77343609 100.248435,5.6328125 100.654687,5.6328125 C101.060939,5.6328125 101.404686,5.77343609 101.685937,6.0546875 C101.967189,6.33593891 102.107812,6.67968547 102.107812,7.0859375 C102.107812,7.49218953 101.967189,7.83593609 101.685937,8.1171875 C101.404686,8.39843891 101.060939,8.5390625 100.654687,8.5390625 C100.248435,8.5390625 99.9046889,8.39843891 99.6234375,8.1171875 C99.3421861,7.83593609 99.2015625,7.49218953 99.2015625,7.0859375 Z M104.565625,20.7382812 C104.565625,19.8007766 104.821482,19.1015648 105.333203,18.640625 C105.844924,18.1796852 106.569527,17.8906256 107.507031,17.7734375 C108.116409,17.6953121 108.632029,17.5761727 109.053906,17.4160156 C109.475783,17.2558586 109.909373,17.0312514 110.354687,16.7421875 L110.354687,15.5 C110.354687,15.2109361 110.323438,14.9335951 110.260937,14.6679688 C110.198437,14.4023424 110.094923,14.1386732 109.950391,13.8769531 C109.805859,13.6152331 109.589064,13.4062508 109.3,13.25 C109.010936,13.0937492 108.663283,13.015625 108.257031,13.015625 C107.788279,13.015625 107.37422,13.1171865 107.014844,13.3203125 C106.655467,13.5234385 106.475781,13.7851546 106.475781,14.1054688 C106.475781,14.2695321 106.530468,14.4765612 106.639844,14.7265625 C106.757032,14.9765638 106.815625,15.2187488 106.815625,15.453125 C106.815625,15.6796886 106.731641,15.8769523 106.563672,16.0449219 C106.395702,16.2128915 106.147658,16.296875 105.819531,16.296875 C105.444529,16.296875 105.165235,16.1972666 104.981641,15.9980469 C104.798046,15.7988271 104.70625,15.5312517 104.70625,15.1953125 C104.70625,14.4843714 105.063668,13.8496122 105.778516,13.2910156 C106.493363,12.7324191 107.354682,12.453125 108.3625,12.453125 C109.721882,12.453125 110.714059,12.8144495 111.339062,13.5371094 C111.964066,14.2597692 112.276562,15.218744 112.276562,16.4140625 L112.276562,21.1367188 C112.276562,21.6132836 112.387889,21.9609364 112.610547,22.1796875 C112.833204,22.3984386 113.112498,22.5078125 113.448437,22.5078125 C113.682814,22.5078125 113.932811,22.480469 114.198437,22.4257812 L114.292187,23.0234375 C113.917186,23.132813 113.585158,23.1875 113.296094,23.1875 C112.54609,23.1875 111.940627,23.0605481 111.479687,22.8066406 C111.018748,22.5527331 110.682814,22.0664098 110.471875,21.3476562 L110.378125,21.3476562 C109.995311,21.9257841 109.569534,22.3769515 109.100781,22.7011719 C108.632029,23.0253922 108.034379,23.1875 107.307812,23.1875 C106.487496,23.1875 105.825393,22.9687522 105.321484,22.53125 C104.817576,22.0937478 104.565625,21.4960975 104.565625,20.7382812 Z M106.604687,20.5507812 C106.604687,21.7460997 107.159369,22.34375 108.26875,22.34375 C108.675002,22.34375 109.057811,22.1875016 109.417187,21.875 C109.776564,21.5624984 110.089061,21.1640649 110.354687,20.6796875 L110.354687,17.2929688 C109.979686,17.5351575 109.626173,17.7167963 109.294141,17.8378906 C108.962108,17.958985 108.475784,18.1015617 107.835156,18.265625 C107.01484,18.4765636 106.604687,19.2382747 106.604687,20.5507812 Z M115.039062,23 L115.039062,22.4375 L116.703125,22.4375 L116.703125,13.203125 L115.039062,13.203125 L115.039062,12.640625 L118.625,12.640625 L118.625,15.1015625 L118.765625,15.1367188 C119.140627,14.2617144 119.642575,13.5957054 120.271484,13.1386719 C120.900394,12.6816383 121.617183,12.453125 122.421875,12.453125 C123.39063,12.453125 124.144528,12.7851529 124.683594,13.4492188 C125.175784,14.0585968 125.421875,14.8671825 125.421875,15.875 L125.421875,22.4375 L127.085937,22.4375 L127.085937,23 L121.835937,23 L121.835937,22.4375 L123.5,22.4375 L123.5,15.453125 C123.5,14.0156178 122.859381,13.296875 121.578125,13.296875 C121.078122,13.296875 120.632814,13.4648421 120.242187,13.8007812 C119.85156,14.1367204 119.531251,14.5585912 119.28125,15.0664062 C119.023436,15.5820338 118.84961,16.066404 118.759766,16.5195312 C118.669921,16.9726585 118.625,17.5234343 118.625,18.171875 L118.625,22.4375 L120.289062,22.4375 L120.289062,23 L115.039062,23 Z M127.645312,13.203125 L127.645312,12.640625 L129.684375,12.640625 L129.684375,10.34375 C130.16094,10.34375 130.492968,10.3105472 130.680469,10.2441406 C130.86797,10.177734 130.992968,10.0507822 131.055469,9.86328125 C131.133594,9.64453016 131.215624,9.50585967 131.301562,9.44726562 C131.3875,9.38867158 131.571092,9.359375 131.852344,9.359375 C131.672655,10.4921932 131.582812,11.5859322 131.582812,12.640625 L134.254687,12.640625 L134.254687,13.203125 L131.582812,13.203125 L131.582812,20.7734375 C131.582812,21.3125027 131.692186,21.6855458 131.910937,21.8925781 C132.129689,22.0996104 132.465623,22.203125 132.91875,22.203125 C133.403127,22.203125 133.780077,21.9609399 134.049609,21.4765625 C134.319142,20.9921851 134.473437,20.4375031 134.5125,19.8125 L135.075,19.8125 C135.04375,20.2500022 134.965626,20.6621074 134.840625,21.0488281 C134.715624,21.4355488 134.543751,21.7929671 134.325,22.1210938 C134.106249,22.4492204 133.817189,22.7089834 133.457812,22.9003906 C133.098436,23.0917978 132.688283,23.1875 132.227344,23.1875 C131.891404,23.1875 131.576955,23.1445317 131.283984,23.0585938 C130.991014,22.9726558 130.721486,22.8359384 130.475391,22.6484375 C130.229296,22.4609366 130.035938,22.2011735 129.895312,21.8691406 C129.754687,21.5371077 129.684375,21.1484397 129.684375,20.703125 L129.684375,13.203125 L127.645312,13.203125 Z" id="Radiant"></path>
            <path d="M58.4296875,44 L58.4296875,43.390625 L60.6796875,43.390625 L60.6796875,27.8046875 L58.4296875,27.8046875 L58.4296875,27.1953125 L71.5546875,27.1953125 L71.671875,31.6015625 L71.0625,31.6015625 C70.9999997,31.2890609 70.9414065,31.0351572 70.8867188,30.8398438 C70.832031,30.6445303 70.7285164,30.3710955 70.5761719,30.0195312 C70.4238274,29.667967 70.2343761,29.3359391 70.0078125,29.0234375 C69.4296846,28.2109334 68.5390685,27.8046875 67.3359375,27.8046875 L63.1171875,27.8046875 L63.1171875,34.90625 L65.296875,34.90625 C66.0703164,34.90625 66.7343722,34.4843792 67.2890625,33.640625 C67.4609384,33.3749987 67.6093744,33.0039086 67.734375,32.5273438 C67.8593756,32.0507789 67.921875,31.7031261 67.921875,31.484375 L68.484375,31.484375 L68.484375,38.9140625 L67.921875,38.9140625 C67.921875,38.6953114 67.8593756,38.3476586 67.734375,37.8710938 C67.6093744,37.3945289 67.4609384,37.0234388 67.2890625,36.7578125 C66.7421848,35.9296834 66.0781289,35.515625 65.296875,35.515625 L63.1171875,35.515625 L63.1171875,43.390625 L67.0664062,43.390625 C68.8086025,43.390625 70.0624962,42.8632865 70.828125,41.8085938 C71.2031269,41.3007787 71.464843,40.8359396 71.6132812,40.4140625 C71.7617195,39.9921854 71.8984369,39.4414096 72.0234375,38.7617188 L72.6328125,38.7617188 L72.5625,44 L58.4296875,44 Z M74.2234375,41.7382812 C74.2234375,40.8007766 74.4792943,40.1015648 74.9910156,39.640625 C75.5027369,39.1796852 76.2273391,38.8906256 77.1648437,38.7734375 C77.7742218,38.6953121 78.2898416,38.5761727 78.7117187,38.4160156 C79.1335958,38.2558586 79.5671853,38.0312514 80.0125,37.7421875 L80.0125,36.5 C80.0125,36.2109361 79.9812503,35.9335951 79.91875,35.6679688 C79.8562497,35.4023424 79.7527351,35.1386732 79.6082031,34.8769531 C79.4636711,34.6152331 79.2468764,34.4062508 78.9578125,34.25 C78.6687485,34.0937492 78.3210958,34.015625 77.9148437,34.015625 C77.4460914,34.015625 77.032033,34.1171865 76.6726562,34.3203125 C76.3132794,34.5234385 76.1335937,34.7851546 76.1335937,35.1054688 C76.1335937,35.2695321 76.1882807,35.4765613 76.2976562,35.7265625 C76.4148443,35.9765637 76.4734375,36.2187488 76.4734375,36.453125 C76.4734375,36.6796886 76.389454,36.8769523 76.2214844,37.0449219 C76.0535148,37.2128915 75.8054704,37.296875 75.4773437,37.296875 C75.1023419,37.296875 74.8230478,37.1972666 74.6394531,36.9980469 C74.4558584,36.7988271 74.3640625,36.5312517 74.3640625,36.1953125 C74.3640625,35.4843714 74.7214808,34.8496122 75.4363281,34.2910156 C76.1511754,33.7324191 77.0124949,33.453125 78.0203125,33.453125 C79.3796943,33.453125 80.3718719,33.8144495 80.996875,34.5371094 C81.6218781,35.2597692 81.934375,36.218744 81.934375,37.4140625 L81.934375,42.1367188 C81.934375,42.6132836 82.045702,42.9609364 82.2683594,43.1796875 C82.4910167,43.3984386 82.7703108,43.5078125 83.10625,43.5078125 C83.3406262,43.5078125 83.5906237,43.480469 83.85625,43.4257812 L83.95,44.0234375 C83.5749981,44.132813 83.2429702,44.1875 82.9539062,44.1875 C82.2039025,44.1875 81.5984398,44.0605481 81.1375,43.8066406 C80.6765602,43.5527331 80.340626,43.0664098 80.1296875,42.3476562 L80.0359375,42.3476562 C79.6531231,42.9257841 79.2273461,43.3769515 78.7585937,43.7011719 C78.2898414,44.0253922 77.6921911,44.1875 76.965625,44.1875 C76.1453084,44.1875 75.4832056,43.9687522 74.9792969,43.53125 C74.4753881,43.0937478 74.2234375,42.4960975 74.2234375,41.7382812 Z M76.2625,41.5507812 C76.2625,42.7460997 76.8171819,43.34375 77.9265625,43.34375 C78.3328145,43.34375 78.7156232,43.1875016 79.075,42.875 C79.4343768,42.5624984 79.7468737,42.1640649 80.0125,41.6796875 L80.0125,38.2929688 C79.6374981,38.5351575 79.283986,38.7167963 78.9519531,38.8378906 C78.6199202,38.958985 78.1335969,39.1015617 77.4929687,39.265625 C76.6726521,39.4765636 76.2625,40.2382747 76.2625,41.5507812 Z M84.696875,44 L84.696875,43.4375 L86.3609375,43.4375 L86.3609375,34.203125 L84.696875,34.203125 L84.696875,33.640625 L88.2828125,33.640625 L88.2828125,36.1015625 L88.4,36.1367188 C88.7984395,35.1757764 89.2300758,34.4882833 89.6949219,34.0742188 C90.1597679,33.6601542 90.7515589,33.453125 91.4703125,33.453125 C92.0328153,33.453125 92.4820295,33.6308576 92.8179687,33.9863281 C93.1539079,34.3417987 93.321875,34.7890598 93.321875,35.328125 C93.321875,35.7421896 93.2164073,36.1035141 93.0054687,36.4121094 C92.7945302,36.7207047 92.5015644,36.875 92.1265625,36.875 C91.931249,36.875 91.7613288,36.8164068 91.6167969,36.6992188 C91.4722649,36.5820307 91.4,36.421876 91.4,36.21875 C91.4,36.0078114 91.4351559,35.7460953 91.5054687,35.4335938 C91.5601565,35.17578 91.5875,34.9531259 91.5875,34.765625 C91.5875,34.3281228 91.3492211,34.109375 90.8726562,34.109375 C90.4585917,34.109375 90.1050796,34.2539048 89.8121094,34.5429688 C89.5191391,34.8320327 89.2437513,35.2382786 88.9859375,35.7617188 C88.5171851,36.6914109 88.2828125,37.8281183 88.2828125,39.171875 L88.2828125,43.4375 L89.946875,43.4375 L89.946875,44 L84.696875,44 Z M93.928125,34.203125 L93.928125,33.640625 L95.9671875,33.640625 L95.9671875,31.34375 C96.4437523,31.34375 96.7757803,31.3105472 96.9632812,31.2441406 C97.1507822,31.177734 97.2757809,31.0507822 97.3382812,30.8632812 C97.4164066,30.6445302 97.498437,30.5058597 97.584375,30.4472656 C97.6703129,30.3886716 97.8539048,30.359375 98.1351562,30.359375 C97.9554678,31.4921932 97.865625,32.5859322 97.865625,33.640625 L100.5375,33.640625 L100.5375,34.203125 L97.865625,34.203125 L97.865625,41.7734375 C97.865625,42.3125027 97.9749989,42.6855458 98.19375,42.8925781 C98.4125011,43.0996104 98.7484352,43.203125 99.2015625,43.203125 C99.6859399,43.203125 100.062889,42.9609399 100.332422,42.4765625 C100.601954,41.9921851 100.75625,41.4375031 100.795312,40.8125 L101.357812,40.8125 C101.326562,41.2500022 101.248438,41.6621074 101.123437,42.0488281 C100.998437,42.4355488 100.826564,42.7929671 100.607812,43.1210938 C100.389061,43.4492204 100.100002,43.7089834 99.740625,43.9003906 C99.3812482,44.0917978 98.971096,44.1875 98.5101562,44.1875 C98.174217,44.1875 97.8597671,44.1445317 97.5667968,44.0585938 C97.2738266,43.9726558 97.0042981,43.8359384 96.7582031,43.6484375 C96.5121081,43.4609366 96.3187507,43.2011735 96.178125,42.8691406 C96.0374993,42.5371077 95.9671875,42.1484397 95.9671875,41.703125 L95.9671875,34.203125 L93.928125,34.203125 Z M102.409375,44 L102.409375,43.4375 L104.073437,43.4375 L104.073437,27.03125 L102.409375,27.03125 L102.409375,26.46875 L105.995312,26.46875 L105.995312,36.1015625 L106.135937,36.1367188 C106.510939,35.2617144 107.012887,34.5957054 107.641797,34.1386719 C108.270706,33.6816383 108.987496,33.453125 109.792187,33.453125 C110.760942,33.453125 111.514841,33.7851529 112.053906,34.4492188 C112.546096,35.0585968 112.792187,35.8671825 112.792187,36.875 L112.792187,43.4375 L114.45625,43.4375 L114.45625,44 L109.20625,44 L109.20625,43.4375 L110.870312,43.4375 L110.870312,36.453125 C110.870312,35.0156178 110.229694,34.296875 108.948437,34.296875 C108.448435,34.296875 108.003127,34.4648421 107.6125,34.8007812 C107.221873,35.1367204 106.901564,35.5585912 106.651562,36.0664062 C106.393749,36.5820338 106.219922,37.066404 106.130078,37.5195312 C106.040234,37.9726585 105.995312,38.5234343 105.995312,39.171875 L105.995312,43.4375 L107.659375,43.4375 L107.659375,44 L102.409375,44 Z" id="Earth"></path>
        </g>
    </g>
</svg>