<?xml version="1.0" encoding="UTF-8"?>
<svg width="150px" height="43px" viewBox="0 0 150 43" version="1.1" xmlns="http://www.w3.org/2000/svg" xmlns:xlink="http://www.w3.org/1999/xlink">
    <!-- Generator: Sketch 44.1 (41455) - http://www.bohemiancoding.com/sketch -->
    <title>Omidyar</title>
    <desc>Created with Sketch.</desc>
    <defs></defs>
    <g id="present" stroke="none" stroke-width="1" fill="none" fill-rule="evenodd">
        <g id="1-Web---Home" transform="translate(-203.000000, -2476.000000)" fill="#FFFFFF">
            <g id="Footer" transform="translate(0.000000, 2430.000000)">
                <g id="Partners" transform="translate(203.000000, 5.000000)">
                    <path d="M78.3779614,44.533058 C78.3804454,43.7133291 78.6549304,43.3251998 79.3678463,43.0463677 C79.986369,42.8041751 80.7073579,42.9544587 81.1519988,43.433255 C81.438904,43.7425164 81.712768,44.0635769 81.9847689,44.3852584 C83.8409583,46.5811385 85.6946636,48.7788816 87.549611,50.9747617 C88.46187,52.0540715 89.375992,53.1308973 90.288251,54.2095861 C90.3497306,54.2822439 90.3925801,54.4014772 90.5049823,54.3766369 C90.6254577,54.3505547 90.6062065,54.2257323 90.6093115,54.1319603 C90.6149006,53.9338591 90.6136585,53.7345159 90.6136585,53.5364147 C90.6142795,50.7549252 90.6155216,47.9734358 90.6124165,45.1919463 C90.6117955,44.7926389 90.6273207,44.3995416 90.7676682,44.0182434 C91.0520893,43.2444689 91.6991784,42.8426775 92.5164234,42.9414176 C93.2430014,43.0289796 93.8540721,43.6965619 93.9006476,44.4672313 C93.9161727,44.715013 93.9062366,44.9640368 93.9062366,45.2124395 C93.9062366,49.7072868 93.8994056,54.202134 93.9124467,58.6963603 C93.9149307,59.5247834 93.7733412,60.2737176 92.9219408,60.5941571 C92.0810976,60.9114916 91.384949,60.6022302 90.8136227,59.9191227 C89.5734721,58.4361584 88.3115863,56.9712034 87.0596366,55.4981752 C86.0480165,54.3083262 85.0363964,53.1197192 84.0272603,51.9280071 C83.3224176,51.095858 82.6219219,50.2599828 81.9189422,49.4265917 C81.8425584,49.3359247 81.7804577,49.181915 81.6388682,49.2365636 C81.5041097,49.2881072 81.5450961,49.4477059 81.5450961,49.5644552 C81.5419911,51.7249379 81.5426121,53.8854206 81.5419911,56.0459032 C81.5419911,56.9898336 81.5450961,57.9331429 81.5413701,58.8770733 C81.537023,60.0774794 81.0073042,60.6866871 79.9689809,60.6947602 C78.9107853,60.7028333 78.3773404,60.1116348 78.3754774,58.9118497 C78.3723723,56.5278045 78.3748564,54.1437594 78.3748564,51.7597143 C78.3748564,49.3508289 78.3698883,46.9419434 78.3779614,44.533058 Z M58.4029048,45.4017845 C58.7053352,45.086934 59.0487519,44.8807598 59.5039499,44.8534355 C60.2106557,44.811207 60.7826029,45.0111712 61.1241567,45.6669544 C61.4321761,46.2587739 61.3234999,47.1070692 60.8297994,47.6038746 C59.9051203,48.5341428 59.3691914,49.6345669 59.1400399,50.926882 C58.8376096,52.6352718 59.2996387,54.1443183 60.3205739,55.4645788 C62.1159045,57.7871442 64.8390194,58.4472745 67.5211478,57.3524395 C69.4729722,56.5563087 71.0112061,54.390858 71.1024941,52.2626677 C71.1801199,50.468579 70.6243188,48.9514594 69.4425429,47.6343039 C69.0804959,47.2306495 68.8451343,46.7829036 68.9264862,46.2208924 C69.0146692,45.6123058 69.3009533,45.1018382 69.9051929,44.9316823 C70.5075695,44.7621475 71.1447225,44.7478643 71.6607792,45.2285236 C72.3407816,45.8607085 72.8760895,46.6108847 73.2921641,47.4324767 C74.9129918,50.6331458 74.8608273,53.8282258 72.922665,56.8463189 C70.9845028,59.865033 68.087506,61.2542252 64.5142328,61.1138777 C62.6077419,61.0387359 60.8863111,60.3456923 59.3741595,59.1639163 C57.5148651,57.7107604 56.4020209,55.8098586 55.95117,53.5028183 C55.8443568,52.9581953 55.8990054,52.4135723 55.85864,51.834794 C55.8120644,49.3607029 56.6690538,47.2101563 58.4029048,45.4017845 Z M106.423126,74.7597571 C106.915584,76.2694246 107.398727,77.7821972 107.886839,79.2937278 C107.940245,79.4589156 107.999241,79.6222404 108.059479,79.7849442 C108.085561,79.8544969 108.130894,79.9352278 108.211625,79.9116296 C108.269379,79.8948624 108.328996,79.8265516 108.354457,79.766935 C108.422768,79.6079572 108.474932,79.4415274 108.530202,79.2769606 C109.048742,77.7225806 109.563557,76.1675795 110.086445,74.6156835 C110.31187,73.9481012 110.350994,73.928229 111.037206,73.9251239 C111.76751,73.9220189 111.815328,73.9449962 112.043858,74.6411448 C112.59407,76.3141371 113.131862,77.9908555 113.67959,79.6644689 C113.723061,79.7967433 113.719335,80.0140957 113.892596,80.0153377 C114.060888,80.0159587 114.064614,79.8010904 114.106843,79.6706789 C114.637183,78.0430201 115.155723,76.4110142 115.69041,74.7845974 C115.787908,74.4889981 115.793497,74.0890697 116.15306,73.9834986 C116.582176,73.8574342 117.0411,73.8915896 117.481394,73.9654894 C117.726071,74.0070968 117.674527,74.2188602 117.62112,74.385911 C117.478289,74.8355199 117.329868,75.2832658 117.175859,75.7285277 C116.419472,77.9082616 115.659981,80.0861325 114.902974,82.2652454 C114.650224,82.9924443 114.055299,83.2750024 113.347973,83.0092115 C113.072867,82.9055034 113.018839,82.6589637 112.938729,82.4273281 C112.428882,80.9499529 111.92152,79.4725778 111.413536,77.9952026 C111.357025,77.8306358 111.306723,77.6635849 111.244622,77.5021232 C111.201773,77.3909629 111.188732,77.2313642 111.053352,77.21025 C110.889407,77.1847887 110.877607,77.3592916 110.837242,77.4642417 C110.668328,77.9039146 110.502519,78.3454504 110.350994,78.7913333 C109.943613,79.9898764 109.549895,81.1927666 109.14003,82.3906887 C108.920815,83.0328098 108.857472,83.0632391 108.090529,83.0458509 C107.462691,83.0315678 107.374508,82.962015 107.176407,82.3882047 C106.310102,79.8799582 105.440693,77.3729537 104.572525,74.8653282 C104.539612,74.7715562 104.506078,74.6777842 104.481237,74.5821491 C104.334059,74.0070968 104.379392,73.9474802 104.980527,73.9257449 C105.079888,73.9220189 105.179249,73.9251239 105.27861,73.9251239 C106.144294,73.927608 106.151125,73.9257449 106.423126,74.7597571 Z M12.3699058,74.7024382 C12.3742529,73.9789652 12.4251754,73.9876593 13.1213241,73.9131385 C13.9112447,73.8280606 14.4161233,74.0944725 14.8085996,74.7968312 C15.3159621,75.7041221 15.9257908,76.5549015 16.492149,77.428658 C16.857922,77.9925322 16.8678581,77.9975003 17.2541244,77.4112699 C17.8273137,76.5412393 18.4563935,75.6985331 18.9308427,74.776338 C19.3792097,73.9050654 20.0654222,73.864079 20.8640369,73.9292847 C21.1664673,73.953504 21.3161299,74.0957145 21.321098,74.3956608 C21.323582,74.5198622 21.327929,74.6440635 21.327929,74.7682649 C21.32855,77.2498081 21.3316551,79.7313513 21.323582,82.2128945 C21.32234,82.4911055 21.4446783,82.8761298 21.055928,82.9785959 C20.6541366,83.084788 20.2076327,83.1319846 19.8219875,82.9276733 C19.5686167,82.7929148 19.6574207,82.4817904 19.6567997,82.2420818 C19.6505896,80.7032269 19.6536947,79.1649931 19.6530737,77.6261382 C19.6530737,77.4528773 19.6567997,77.2783744 19.6431376,77.1057345 C19.6325804,76.966629 19.5512286,76.9424097 19.4630456,77.0479809 C19.3680315,77.1622461 19.2879217,77.2889315 19.2053278,77.4125119 C18.585563,78.3415381 17.9689032,79.2724273 17.3466544,80.1989694 C16.8777942,80.8982231 16.8647531,80.9007071 16.4045871,80.2337458 C15.7705391,79.3171397 15.1482903,78.3924606 14.5173474,77.4733705 C14.4527627,77.3802195 14.4086712,77.2075796 14.2583875,77.2622282 C14.1267341,77.3100457 14.1652365,77.4727495 14.1646155,77.5901198 C14.1621315,79.1041344 14.1677205,80.618149 14.1571634,82.1315426 C14.1553004,82.4153427 14.2869538,82.807198 13.9621673,82.9438195 C13.5274625,83.1270165 13.028173,83.1034183 12.5791851,82.9543766 C12.292901,82.8599836 12.3723899,82.534576 12.3711478,82.2961094 C12.3649378,81.0304975 12.3680428,79.7648857 12.3680428,78.4992738 C12.3680428,77.2336619 12.3624537,75.96805 12.3699058,74.7024382 Z M74.9506869,74.6534407 C74.955655,73.9858584 75.0127876,73.9678492 75.6747809,73.9175477 C76.2218879,73.8753192 76.6044281,74.044233 76.9422558,74.493842 C78.1196847,76.0594001 79.331269,77.599497 80.5347802,79.145183 C80.6620865,79.3085078 80.7428174,79.6457144 80.9825261,79.5457324 C81.1793852,79.4643805 81.070709,79.1402149 81.071951,78.9253466 C81.0794031,77.5591316 81.070088,76.1929166 81.0806451,74.8273226 C81.0825082,74.5429015 80.9539597,74.1504252 81.2781253,74.0144247 C81.7134511,73.8324697 82.2077725,73.8672461 82.6629705,74.0026256 C82.8852909,74.0690733 82.8647977,74.3224441 82.8666607,74.5193033 C82.8716288,75.1154698 82.8703868,75.7116363 82.8703868,76.3071819 C82.8703868,78.1950425 82.8784598,80.0829032 82.8629347,81.9701429 C82.8598296,82.3365369 83.0324695,82.8041551 82.5095818,82.9954252 C81.9960092,83.1835902 81.3942536,82.9997722 81.0558049,82.5656885 C79.7752888,80.9225044 78.4966358,79.2780784 77.2173618,77.6342734 C77.140978,77.5361543 77.0621101,77.4405193 76.9813792,77.3455052 C76.9049954,77.2560803 76.8584199,77.0759883 76.7292504,77.1144907 C76.5485375,77.1678973 76.6218163,77.3647564 76.6211953,77.4995149 C76.6149852,78.8657299 76.6168482,80.2319449 76.6168482,81.5975388 C76.6168482,81.7465805 76.6174692,81.8956221 76.6168482,82.0446637 C76.6137432,82.9712059 76.1374309,83.3046866 75.2549803,83.0066033 C74.8997644,82.886749 74.951929,82.5923917 74.9506869,82.3278428 C74.9450979,81.0361487 74.9482029,79.7450755 74.9482029,78.4533814 C74.9482029,77.1865275 74.9419928,75.9196736 74.9506869,74.6534407 Z M128.738322,78.4726326 C128.674358,81.2373549 126.871576,83.1295626 123.986378,83.1500559 C121.141546,83.1705491 119.265484,81.1777382 119.24437,78.4819477 C119.222635,75.6681658 121.522223,73.6697659 124.039785,73.7759581 C126.479099,73.6995743 128.80477,75.588677 128.738322,78.4726326 Z M126.925603,78.4552444 C126.918772,76.7449917 125.700978,75.4135531 123.963401,75.409827 C122.228929,75.40548 121.016724,76.863604 121.067646,78.511756 C121.120432,80.2257348 122.241349,81.521155 124.072077,81.5292281 C125.846293,81.4398031 126.933055,80.1835063 126.925603,78.4552444 Z M9.49029726,78.5083405 C9.45241585,81.3016291 7.49500239,83.1360832 4.78182365,83.1460193 C1.93574945,83.1565764 0.0646559382,81.2575376 0.00131324385,78.5188976 C-0.0601664301,75.8404952 2.04442564,73.7787526 4.74953129,73.7762686 C7.31739444,73.722241 9.52942069,75.5759463 9.49029726,78.5083405 Z M1.80471701,78.374824 C1.7854658,80.1366203 3.10386325,81.5444428 4.78182365,81.5258126 C6.44177484,81.5084244 7.67633638,80.2782099 7.67012631,78.468596 C7.66453725,76.727914 6.43929082,75.3430688 4.78430768,75.4337358 C2.96662075,75.267927 1.81962118,76.9676226 1.80471701,78.374824 Z M64.379847,73.9257449 C65.0915208,73.9245029 65.7410939,74.1356452 66.3658267,74.4678839 C67.945047,75.3068641 67.9934856,78.0113487 66.6365857,79.0068226 C66.5366036,79.0801014 66.4335165,79.1496542 66.3285663,79.2161019 C65.6193766,79.6669529 65.6144085,79.6700579 66.119908,80.3916678 C66.5887682,81.0617342 67.0824686,81.7144123 67.5407716,82.3919308 C67.8817044,82.8955673 67.8071835,82.966362 67.1998389,83.0427459 C66.2857169,83.1582532 65.6448378,82.8614119 65.1927449,82.0336098 C64.8735474,81.4498634 64.4208334,80.9406378 64.0587864,80.3786267 C63.8488861,80.0532191 63.5992414,79.8731271 63.2061441,79.9097665 C63.0831847,79.9215657 62.9583624,79.9110086 62.834161,79.9110086 C61.8697374,79.9116296 61.8697374,79.9122506 61.8678744,80.9083455 C61.8666324,81.3796897 61.8753265,81.8510338 61.8653904,82.322378 C61.8517282,82.9719511 61.7958376,83.0203896 61.1220453,83.0334308 C61.0226842,83.0359148 60.9233231,83.0377778 60.824583,83.0321888 C60.27996,83.0023804 60.2010922,82.9533209 60.1992291,82.4304332 C60.188672,79.8010904 60.1992291,77.1711265 60.189914,74.5417837 C60.188051,74.0983848 60.3631749,73.9108408 60.8071948,73.9220189 C61.4517999,73.9387861 62.0970259,73.926366 62.742252,73.926366 C63.288117,73.9257449 63.833982,73.926366 64.379847,73.9257449 Z M61.8709795,77.9020515 C61.8691164,78.1901987 61.9722036,78.3796058 62.2945061,78.3845738 C63.1595686,78.398857 64.0295991,78.4454325 64.8741684,78.2001348 C65.47965,78.0243899 65.8777154,77.4623787 65.8553591,76.8668332 C65.8330029,76.2694246 65.390846,75.7440529 64.7723233,75.6167465 C63.9942017,75.4565267 63.2042811,75.4316865 62.4106344,75.4478326 C62.0436194,75.4546637 61.8535913,75.5863171 61.8678744,75.9713414 C61.8790525,76.2681826 61.8703585,76.5656449 61.8703585,76.8624861 C61.8716005,77.2090079 61.8734635,77.5555297 61.8709795,77.9020515 Z M131.437652,74.6429457 C131.442621,73.9852995 131.49789,73.9325139 132.171682,73.9275459 C133.362153,73.9194728 134.555107,73.8828334 135.743093,73.940587 C136.805635,73.9921306 137.790552,74.2666156 138.420874,75.2701626 C139.254886,76.5972541 138.866136,78.411836 137.530971,79.2427431 C136.860284,79.6600597 136.854074,79.6644068 137.303683,80.3077698 C137.786205,80.9989504 138.284874,81.6777108 138.768638,82.3682704 C138.876693,82.5229011 139.065479,82.6868469 138.940657,82.8961262 C138.821423,83.0960904 138.58482,83.0215696 138.39355,83.0315057 C138.195449,83.0420628 137.995484,83.0197065 137.798625,83.0370947 C137.358331,83.0755971 137.057143,82.9110303 136.811845,82.5297322 C136.369068,81.8422776 135.855495,81.2007776 135.415822,80.512081 C135.11215,80.0357688 134.728989,79.8302156 134.176913,79.9084624 C134.055196,79.9258506 133.929132,79.9084624 133.80493,79.9121885 C133.159704,79.9308187 133.124307,79.957522 133.112508,80.5841178 C133.10133,81.1542021 133.116234,81.7255283 133.10754,82.2956126 C133.096983,82.968163 133.044818,83.0159805 132.390277,83.0333687 C132.315756,83.0358527 132.241235,83.0352317 132.166714,83.0333687 C131.502237,83.0178435 131.45442,82.969405 131.435168,82.3086537 C131.434547,82.2838135 131.434547,82.2589732 131.434547,82.2341329 C131.434547,80.9691421 131.434547,79.7041512 131.435168,78.4385393 C131.435168,77.1735484 131.428337,75.9079366 131.437652,74.6429457 Z M135.289758,78.3609135 C135.558654,78.3391782 135.828792,78.2814246 136.089614,78.2075248 C136.699443,78.0355059 137.108066,77.4896409 137.096887,76.8934744 C137.085088,76.2935818 136.652868,75.7526849 136.040555,75.6216524 C135.238835,75.4502546 134.423453,75.4266563 133.604966,75.4502546 C133.265275,75.4601907 133.106919,75.6030222 133.111887,75.944576 C133.117476,76.3649976 133.108161,76.7860402 133.110024,77.2064618 C133.114992,78.504987 133.00259,78.3832697 134.325955,78.3671235 C134.647016,78.3671235 134.97056,78.3869958 135.289758,78.3609135 Z M29.9398651,74.6870993 C29.9442122,73.9735625 29.9858196,73.932576 30.7043245,73.926987 C31.6966934,73.9195349 32.6909253,73.8878635 33.6814311,73.9356811 C36.226938,74.0580194 38.1234928,75.8185737 38.1278399,78.4789669 C38.1321869,80.7139704 36.6392866,82.4602415 34.4247763,82.8825261 C33.121283,83.1315499 31.8041276,83.0023804 30.4925612,83.0328098 C30.0050708,83.0439879 29.931792,82.7508727 29.9348971,82.3540493 C29.9435912,81.0393779 29.9380021,79.7240855 29.9380021,78.4094141 C29.9373811,77.1686425 29.931792,75.9278709 29.9398651,74.6870993 Z M31.6172045,80.774829 C31.6271406,81.320694 31.6749582,81.3585754 32.2245492,81.3790686 C32.571692,81.3921098 32.9194558,81.3846577 33.2672196,81.3815527 C34.9222027,81.3678905 35.9021515,80.5792119 36.2530203,78.9583841 C36.5765649,77.4629997 35.5388625,75.9204188 34.1881727,75.6459338 C33.5833121,75.5223534 32.9716204,75.4174033 32.3437825,75.4465906 C31.6538439,75.479504 31.6227936,75.4875771 31.6147205,76.1582644 C31.6054054,76.9028516 31.6128575,77.6474387 31.6134785,78.3920259 C31.6134785,79.1862936 31.6023004,79.9805613 31.6172045,80.774829 Z M63.479946,42.6491097 C63.47622,41.9802854 63.7904494,41.5052152 64.3512185,41.2003008 C64.9237868,40.8885554 65.4957341,40.9531401 66.0428411,41.307735 C66.3285042,41.493416 66.5166693,41.7449238 66.6029892,42.0678473 C66.7060764,42.4510085 66.7787342,42.8372748 66.7774921,43.2403082 C66.7706611,45.9199525 66.7737661,48.5989759 66.7737661,51.2786203 C66.7737661,51.7797728 66.7346427,52.2790623 66.4527056,52.708178 C66.0484302,53.3242167 65.3199892,53.5558523 64.5474567,53.349057 C63.9860665,53.1987733 63.5600559,52.6417302 63.4923661,51.9524127 C63.4731149,51.7555535 63.48243,51.5555893 63.48243,51.3574882 C63.481809,49.9682959 63.481809,48.5784827 63.48243,47.1892905 C63.483051,45.6758969 63.4892611,44.1625033 63.479946,42.6491097 Z M85.9784637,74.7454739 C85.9821898,73.9667314 86.0138611,73.930092 86.7603113,73.926987 C88.4972673,73.9207769 90.2348444,73.9220189 91.9718004,73.92885 C92.2313813,73.929471 92.574177,73.8450141 92.663602,74.20023 C92.753027,74.5566879 92.7977395,74.9485432 92.6083324,75.2876129 C92.48351,75.5111753 92.209646,75.4472116 91.9922937,75.4478326 C90.8012026,75.4528007 89.6094905,75.4465906 88.4183995,75.4521797 C87.6775384,75.4565267 87.6520771,75.4745359 87.6551821,76.1973878 C87.6613922,77.8678962 87.4806792,77.6319136 89.0536894,77.6493018 C89.8727974,77.6586169 90.6919054,77.6393657 91.5110134,77.6567538 C92.0711615,77.669174 92.1245681,77.7548729 92.1220841,78.4205922 C92.1202211,79.0788594 92.0711615,79.1571063 91.4923832,79.1658004 C90.4497127,79.1813256 89.4076633,79.1651794 88.3649929,79.1738735 C87.6930635,79.1800835 87.6657392,79.2154809 87.6533191,79.8992094 C87.64773,80.1966717 87.642141,80.495376 87.6558031,80.7928382 C87.6794014,81.322557 87.7241139,81.3784476 88.2786729,81.3840367 C89.4946043,81.3970778 90.7105356,81.3840367 91.9270879,81.3927308 C92.1872898,81.3945938 92.5375376,81.2970958 92.6511819,81.6162932 C92.7927714,82.0124956 92.7909084,82.4503054 92.6362777,82.8527178 C92.567967,83.0303258 92.3506146,83.0290837 92.1761117,83.0297047 C90.290114,83.0315678 88.4041163,83.0265997 86.5181186,83.0328098 C86.0206922,83.0346728 85.9728747,82.7254114 85.9747377,82.3397662 C85.9815688,81.049314 85.9772217,79.7588619 85.9772217,78.4684097 C85.9772217,77.2276381 85.9728747,75.9868665 85.9784637,74.7454739 Z M142.036438,74.6917568 C142.040785,73.97822 142.090465,73.9390966 142.799655,73.9254344 C142.874176,73.9235714 142.948697,73.9241924 143.022597,73.9248134 C143.787056,73.9341285 143.826179,73.9670419 143.83301,74.7190811 C143.839842,75.5381891 143.822453,76.3572971 143.841705,77.1751631 C143.847915,77.4303969 143.68459,77.8011379 143.96218,77.9160242 C144.173943,78.0042072 144.344099,77.6589274 144.509908,77.4875295 C145.455701,76.5063387 146.438134,75.5543353 147.313754,74.5129069 C147.992514,73.704977 148.832115,73.9322655 149.644392,73.9633159 C149.951791,73.975736 149.743753,74.2154446 149.639424,74.3303309 C149.158765,74.8637757 148.676864,75.3965996 148.1813,75.9163823 C147.71865,76.4007676 147.233644,76.8634176 146.767268,77.3446979 C146.285366,77.8421244 146.297165,77.8533025 146.710135,78.3855053 C147.74349,79.7157019 148.769394,81.0521086 149.79716,82.3866522 C149.902731,82.5232737 150.045563,82.6716943 149.985946,82.8493023 C149.903973,83.0946 149.658675,83.0200791 149.471752,83.0306363 C149.248811,83.0430564 149.023385,83.0157321 148.802307,83.0374673 C148.297428,83.0877689 147.954012,82.8474392 147.668348,82.4655201 C146.926866,81.4731512 146.176069,80.4869924 145.433966,79.4946235 C145.094275,79.0400465 145.125326,79.0692338 144.667023,79.4356278 C144.007513,79.9634836 143.718745,80.6006366 143.8268,81.4433429 C143.873376,81.8091159 143.831147,82.186688 143.828042,82.5586711 C143.824937,82.8579964 143.677138,83.0194581 143.373465,83.0262892 C143.175364,83.0306363 142.976021,83.0393303 142.77792,83.0318783 C142.150703,83.008901 142.044511,82.917613 142.038301,82.2841861 C142.026502,80.9937339 142.035196,79.7039028 142.034575,78.4134506 C142.033954,77.172679 142.028365,75.9319074 142.036438,74.6917568 Z M48.8482804,83.0320646 C48.2962054,82.9948042 48.2353467,82.9016531 48.4570461,82.3887015 C49.5798264,79.7947561 50.7044698,77.2014317 51.8328391,74.6093492 C52.1067031,73.9802693 53.1114921,73.6567248 53.7070377,73.9933105 C53.8722255,74.0864615 53.9274951,74.2504073 53.9976689,74.4100061 C54.647242,75.8848972 55.3024042,77.3579254 55.9513563,78.8328165 C56.4506457,79.967396 56.9387571,81.1075645 57.4417726,82.2402809 C57.749171,82.9333245 57.7094265,83.0128134 56.9853326,83.0339276 C55.9376941,83.0643569 55.9724705,83.0482107 55.5222406,82.070125 C54.8515532,80.6144851 55.2955731,80.8330795 53.6666722,80.8125862 C52.9717656,80.8038921 52.276238,80.8318375 51.5819524,80.8045132 C51.1143342,80.786504 50.8348812,80.973427 50.6777665,81.4025427 C50.5672272,81.704352 50.4032815,81.9893941 50.3107514,82.2961715 C50.1312805,82.892338 49.7766856,83.1699281 49.2314416,83.0326856 C49.0470026,83.0326856 48.9470205,83.0382746 48.8482804,83.0320646 Z M53.9063809,79.2898775 C54.193907,79.2936036 54.3305285,79.2134937 54.1889389,78.8961592 C53.827513,78.0851243 53.4803702,77.2678794 53.1239123,76.4549815 C53.0866519,76.3699035 53.0301402,76.2394921 52.9686606,76.230798 C52.8649524,76.2158939 52.828934,76.3500313 52.7910526,76.4382143 C52.4476359,77.229998 52.1067031,78.0236447 51.7663914,78.8166704 C51.6074137,79.1880324 51.7663914,79.3091288 52.1290594,79.2917406 C52.4004393,79.2786994 52.6724403,79.2892565 52.9438203,79.2886355 C53.2648808,79.2886355 53.5859413,79.2855305 53.9063809,79.2898775 Z M42.0295015,78.0890988 C41.1830692,76.9303001 40.438482,75.6963596 39.6591185,74.4891223 C39.3604142,74.0258512 39.4026427,73.9544355 39.9286354,73.9252481 C41.2911244,73.8507273 41.2979554,73.8463803 42.0276384,74.9722656 C42.4989826,75.7000856 42.9398974,76.4477778 43.4106206,77.1768398 C43.7608684,77.7189787 43.8223481,77.7239468 44.1651439,77.198575 C44.7339861,76.3279235 45.271157,75.4367787 45.8356522,74.5624011 C45.9915249,74.3208295 46.1014431,73.9948009 46.4454809,73.9562985 C46.9373183,73.9016499 47.4359867,73.8817777 47.9259611,73.9736867 C48.0675506,73.999769 48.0812128,74.1506736 48.010418,74.276117 C47.9371392,74.4059074 47.8570293,74.5313508 47.7756774,74.6555521 C46.8919848,76.0031369 46.0200912,77.3594158 45.1152843,78.6927174 C44.8215481,79.1255591 44.6880316,79.5621269 44.7085248,80.0819096 C44.7370911,80.8004145 44.72405,81.5201614 44.7122509,82.2392873 C44.7016938,82.9279838 44.6122688,83.0105777 43.9415814,83.032934 C43.8428413,83.03666 43.7434802,83.036039 43.6441192,83.033555 C42.9777789,83.0174088 42.9249933,82.9695913 42.9113311,82.3119451 C42.902637,81.9151217 42.9094681,81.5182984 42.9094681,81.121475 C43.1212314,79.9632973 42.7063989,79.0156409 42.0295015,78.0890988 Z M97.8994346,76.43188 C97.8957086,75.5966259 97.8888775,75.5910368 97.0834317,75.5829637 C96.661768,75.5792377 96.2401044,75.5885528 95.8190618,75.5804797 C95.1253972,75.5668175 95.0800637,75.515274 95.0738536,74.7961481 C95.0732326,74.7222483 95.0719906,74.6477275 95.0750956,74.5732066 C95.1011779,74.0043644 95.1539635,73.9323276 95.7314998,73.9298436 C97.7398359,73.9199075 99.7481719,73.9199075 101.756508,73.9298436 C102.35019,73.9329486 102.396145,74.0056064 102.41167,74.6489695 C102.432784,75.5289361 102.388693,75.5761326 101.516799,75.5817217 C101.095136,75.5848267 100.673472,75.5742696 100.252429,75.5848267 C99.6283176,75.6003519 99.5860891,75.6345073 99.5836051,76.2791123 C99.575532,78.0638859 99.5805,79.8492805 99.5805,81.6346751 L99.5805,82.0060371 C99.578016,83.0331824 99.4954221,83.092178 98.481318,83.0406345 C98.0180469,83.0170362 97.8913615,82.8003048 97.8969506,82.3817462 C97.9099917,81.3409388 97.9012976,80.2995104 97.9006766,79.258082 C97.9000556,78.3160147 97.9031606,77.3739473 97.8994346,76.43188 Z M26.5302273,82.279839 C26.5289852,82.549977 26.5631406,82.8890467 26.232144,82.9672936 C25.781293,83.0747277 25.3000128,83.1411755 24.864687,82.9008458 C24.7007412,82.8101788 24.7348966,82.5915844 24.7348966,82.4208076 C24.7330336,79.7970538 24.7373806,77.1733 24.7293075,74.5495463 C24.7280655,74.1160835 24.8882853,73.8931421 25.3385152,73.9254344 C25.412415,73.9310235 25.4869358,73.9254344 25.5614566,73.9248134 C26.5128391,73.9154983 26.5296062,73.9285395 26.5320903,74.8544606 C26.5345743,76.0672869 26.5327113,77.2801132 26.5320903,78.4929395 C26.5314693,79.7554464 26.5339533,81.0179532 26.5302273,82.279839 Z" id="Omidyar"></path>
                </g>
            </g>
        </g>
    </g>
</svg>