<?xml version="1.0" encoding="UTF-8"?>
<svg width="24px" height="20px" viewBox="0 0 24 20" version="1.1" xmlns="http://www.w3.org/2000/svg" xmlns:xlink="http://www.w3.org/1999/xlink">
    <!-- Generator: Sketch 44.1 (41455) - http://www.bohemiancoding.com/sketch -->
    <title>twitter</title>
    <desc>Created with Sketch.</desc>
    <defs></defs>
    <g id="present" stroke="none" stroke-width="1" fill="none" fill-rule="evenodd" opacity="0.5">
        <g id="1-Web---Home" transform="translate(-504.000000, -2754.000000)" fill-rule="nonzero" fill="#FFFFFF">
            <g id="Footer" transform="translate(0.000000, 2430.000000)">
                <g id="rrss" transform="translate(504.000000, 321.000000)">
                    <path d="M23.994,5.30775 C23.11125,5.7 22.16325,5.96475 21.1665,6.0825 C22.18275,5.4735 22.9635,4.509 23.33175,3.36 C22.38,3.92325 21.327,4.33425 20.20575,4.554 C19.30725,3.59775 18.02775,3 16.611,3 C13.89225,3 11.6895,5.2035 11.6895,7.92225 C11.6895,8.30775 11.73225,8.68425 11.81625,9.04425 C7.725,8.83875 4.098,6.879 1.6695,3.90075 C1.2465,4.62825 1.0035,5.4735 1.0035,6.37575 C1.0035,8.08425 1.87275,9.59025 3.19275,10.47375 C2.3865,10.4475 1.6275,10.227 0.96375,9.858 C0.963,9.87825 0.963,9.9 0.963,9.9195 C0.963,12.30525 2.6595,14.295 4.91175,14.74725 C4.49925,14.859 4.06425,14.91975 3.615,14.91975 C3.297,14.91975 2.9895,14.889 2.6895,14.832 C3.315,16.7865 5.13375,18.21 7.287,18.2505 C5.60325,19.5705 3.48075,20.35875 1.1745,20.35875 C0.777,20.35875 0.38475,20.3355 0,20.28975 C2.178,21.68475 4.7655,22.5 7.54575,22.5 C16.59975,22.5 21.552,14.99925 21.552,8.49375 C21.552,8.28075 21.546,8.06775 21.537,7.85625 C22.49925,7.1625 23.33325,6.29625 23.994,5.30775 Z" id="twitter"></path>
                </g>
            </g>
        </g>
    </g>
</svg>