<?xml version="1.0" encoding="UTF-8"?>
<svg width="102px" height="25px" viewBox="0 0 102 25" version="1.1" xmlns="http://www.w3.org/2000/svg" xmlns:xlink="http://www.w3.org/1999/xlink">
    <!-- Generator: Sketch 44.1 (41455) - http://www.bohemiancoding.com/sketch -->
    <title>Vizzuality</title>
    <desc>Created with Sketch.</desc>
    <defs></defs>
    <g id="present" stroke="none" stroke-width="1" fill="none" fill-rule="evenodd">
        <g id="1-Web---Home" transform="translate(-731.000000, -2489.000000)" fill="#FFFFFF">
            <g id="Footer" transform="translate(0.000000, 2430.000000)">
                <g id="Partners" transform="translate(203.000000, 5.000000)">
                    <path d="M531.55423,59.8436666 L534.548109,69.7698948 L537.429917,59.8436666 L540.984147,59.8436666 L536.261183,74.1886674 L532.642913,74.1886674 L528,59.8436666 L531.55423,59.8436666 Z M541.176267,59.8276566 L544.570397,59.8276566 L544.570397,74.1726574 L541.176267,74.1726574 L541.176267,59.8276566 Z M541.176267,54.1601005 L544.570397,54.1601005 L544.570397,57.6342803 L541.176267,57.6342803 L541.176267,54.1601005 Z M553.151782,62.9015853 L546.139382,62.9015853 L546.139382,59.8276566 L557.650604,59.8276566 L557.650604,62.5013342 L550.157903,71.0987286 L557.650604,71.0987286 L557.650604,74.1726574 L545.354889,74.1726574 L545.354889,71.57903 L553.151782,62.9015853 Z M565.367446,62.9015853 L558.435097,62.9015853 L558.435097,59.8276566 L570.026369,59.8276566 L570.026369,62.5013342 L562.373568,71.0987286 L570.026369,71.0987286 L570.026369,74.1726574 L557.650604,74.1726574 L557.650604,71.57903 L565.367446,62.9015853 Z M579.952598,69.7698948 C580.496939,68.7452519 580.576989,67.4004081 580.593,66.295715 L580.593,59.9077068 L584.067179,59.9077068 L584.067179,74.2527076 L580.593,74.2527076 L580.593,72.7477633 C579.952598,73.4522053 578.543714,74.5568984 576.014127,74.5568984 C573.56459,74.5568984 572.459896,73.5322555 571.835505,72.6677131 C571.051012,71.4829697 570.970962,70.1541359 570.970962,68.8893423 L570.970962,59.8276566 L574.445142,59.8276566 L574.445142,68.1048501 C574.445142,69.5297442 574.749333,71.3388793 577.19887,71.3388793 C578.847905,71.3388793 579.712447,70.3142364 579.952598,69.7698948 Z M591.543871,59.4434155 C595.722493,59.4434155 597.531628,61.0123999 597.547638,63.5419871 L597.547638,71.7391304 C597.547638,72.9238738 597.547638,73.3241249 598.17203,74.2687176 L594.073458,74.2687176 L593.993408,73.003924 C593.048815,73.8044263 591.46382,74.5088683 589.734736,74.5088683 C586.420656,74.5088683 584.531471,72.5396327 584.531471,70.0900957 C584.531471,66.9361168 586.981008,65.7513734 589.654685,65.2070319 C591.784021,64.886831 593.128865,64.5025899 594.073458,64.1823889 C594.073458,63.0776958 593.753257,62.0530529 591.623921,62.0530529 C589.030294,62.0530529 588.790143,63.3978967 588.790143,64.1823889 L585.315963,64.0222885 C585.315963,63.0616858 585.556114,59.4434155 591.543871,59.4434155 Z M593.897347,68.9854026 L593.961388,68.9854026 L593.881337,68.9854026 L593.881337,67.0962172 C593.336996,67.3363679 592.472453,67.720609 591.20766,67.8807095 C589.622665,68.1208601 588.053681,68.3450008 588.053681,69.8499451 C588.053681,70.7945377 588.694083,71.57903 590.423167,71.57903 C592.088212,71.57903 593.897347,70.7945377 593.897347,68.9854026 Z M599.100612,54 L602.574792,54 L602.574792,74.2527076 L599.100612,74.2527076 L599.100612,54 Z M604.383927,54.1601005 L607.778057,54.1601005 L607.778057,57.6342803 L604.383927,57.6342803 L604.383927,54.1601005 Z M621.898917,70.4743368 L624.572595,59.8436666 L628.030764,59.8436666 L624.092293,72.7637733 C623.531942,74.4928583 622.8275,77.1024957 621.642756,78.0470884 C620.698164,78.7515304 619.833621,78.9116308 618.728928,78.9116308 C617.704285,78.9116308 617.304034,78.8315806 616.759692,78.7515304 L616.759692,75.8377021 C617.079893,75.9177523 617.464134,75.9177523 617.704285,75.9177523 C619.673521,75.9177523 619.993722,74.7330089 620.073772,74.412808 L615.735049,62.2771935 L613.205462,62.2771935 L613.205462,69.3696437 C613.205462,69.9299953 613.205462,70.5543871 613.525663,70.874588 C613.925914,71.2748391 614.630356,71.2748391 614.790457,71.2748391 C615.350808,71.2748391 615.89515,71.1947889 616.295401,71.1147387 L616.295401,74.0285669 C615.8151,74.1086172 615.030607,74.2687176 613.845864,74.2687176 C610.691885,74.2687176 609.747292,73.1640245 609.747292,70.7945377 L609.747292,62.2771935 L607.698007,62.2771935 L607.698007,74.2527076 L604.303877,74.2527076 L604.303877,59.8276566 L609.747292,59.8276566 L609.747292,54.704442 L613.221472,54.704442 L613.221472,59.8276566 L618.664888,59.8276566 L621.898917,70.4743368 Z M626.221629,70.3142364 L630,70.3142364 L630,74.2527076 L626.221629,74.2527076 L626.221629,70.3142364 Z" id="Vizzuality"></path>
                </g>
            </g>
        </g>
    </g>
</svg>